# xmcd CD database file
#
# Track frame offsets:
#	150
#	27050
#	49261
#	70067
#	91319
#	112415
#	134827
#	147906
#	168598
#	187339
#	208251
#	229801
#
# Disc length: 3344 seconds
#
# Revision: 0
# Processed by: cddbd v1.5.2PL0 Copyright (c) Steve Scherf et al.
# Submitted via: CDex 1.70beta2
#
DISCID=c00d0e0c
DTITLE=Jhonny and Ray - Edgar Joel - Grandes Exitos - Colección Ssabrosa
DYEAR=1900
DGENRE=Salsa
TTITLE0=Bandolera - Jhonny and Ray
TTITLE1=Hechizo de luna - Edgar Joel
TTITLE2=Mascarada - Jhonny and Ray
TTITLE3=Hasta el sol de hoy - Edgar Joel
TTITLE4=Sin saber - Jhonny and Ray
TTITLE5=Si tuviera tus ojos - Edgar Joel
TTITLE6=Mi amor, amor - Jhonny and Ray
TTITLE7=Me atrapa la noche - Edgar Joel
TTITLE8=Yo quiero ser tu amor - Jhonny and Ray
TTITLE9=En las nubes - Edgar Joel
TTITLE10=Una mujer como tu - Jhonny and Ray
TTITLE11=No juegues más - Edgar Joel
EXTD=
EXTT0=
EXTT1=
EXTT2=
EXTT3=
EXTT4=
EXTT5=
EXTT6=
EXTT7=
EXTT8=
EXTT9=
EXTT10=
EXTT11=
PLAYORDER=
